mtllib model_2.mtl
o model_2
v 2.1746487617492676 133.91827392578125 10.177399635314941 
v 2.250070333480835 133.729248046875 10.293866157531738 
v 2.3618059158325195 133.75132751464844 10.293866157531738 
v 2.3618059158325195 133.46096801757812 10.355447769165039 
v 2.476334810256958 133.73509216308594 10.293083190917969 
v 2.574103593826294 133.6707763671875 10.293083190917969 
v 2.5545499324798584 133.91827392578125 10.177399635314941 
v 2.713773012161255 133.8110809326172 10.177399635314941 
v 2.6383514404296875 133.57464599609375 10.293083190917969 
v 2.8227152824401855 133.65065002441406 10.177399635314941 
v 2.660698652267456 133.46096801757812 10.293083190917969 
v 2.8590292930603027 133.46096801757812 10.177399635314941 
v 2.6383514404296875 133.3472900390625 10.293083190917969 
v 2.8227152824401855 133.27130126953125 10.177399635314941 
v 2.574103593826294 133.25115966796875 10.293083190917969 
v 2.3645992279052734 133.95594787597656 10.177399635314941 
v 2.713773012161255 133.11085510253906 10.177399635314941 
v 2.5545499324798584 133.00367736816406 10.177399635314941 
v 2.476334810256958 133.18685913085938 10.293083190917969 
v 2.3645992279052734 132.96600341796875 10.177399635314941 
v 2.3618059158325195 133.1706085205078 10.293866157531738 
v 2.1746487617492676 133.00367736816406 10.177399635314941 
v 2.250070333480835 133.1927032470703 10.293866157531738 
v 2.015425443649292 133.11085510253906 10.177399635314941 
v 2.155095100402832 133.25570678710938 10.293866157531738 
v 1.9064832925796509 133.27130126953125 10.177399635314941 
v 2.0936405658721924 133.3498992919922 10.293866157531738 
v 1.8701692819595337 133.46096801757812 10.177399635314941 
v 2.071293354034424 133.46096801757812 10.293866157531738 
v 2.0936405658721924 133.57205200195312 10.293866157531738 
v 1.9064832925796509 133.65065002441406 10.177399635314941 
v 2.155095100402832 133.66622924804688 10.293866157531738 
v 2.015425443649292 133.8110809326172 10.177399635314941 
v -2.174659490585327 133.91827392578125 10.177399635314941 
v -2.2500810623168945 133.729248046875 10.293866157531738 
v -2.361816644668579 133.75132751464844 10.293866157531738 
v -2.361816644668579 133.46096801757812 10.355447769165039 
v -2.4763455390930176 133.73509216308594 10.293083190917969 
v -2.5741143226623535 133.6707763671875 10.293083190917969 
v -2.554560422897339 133.91827392578125 10.177399635314941 
v -2.7137837409973145 133.8110809326172 10.177399635314941 
v -2.638362169265747 133.57464599609375 10.293083190917969 
v -2.822726011276245 133.65065002441406 10.177399635314941 
v -2.6607093811035156 133.46096801757812 10.293083190917969 
v -2.8590400218963623 133.46096801757812 10.177399635314941 
v -2.638362169265747 133.3472900390625 10.293083190917969 
v -2.822726011276245 133.27130126953125 10.177399635314941 
v -2.5741143226623535 133.25115966796875 10.293083190917969 
v -2.364609956741333 133.95594787597656 10.177399635314941 
v -2.7137837409973145 133.11085510253906 10.177399635314941 
v -2.554560422897339 133.00367736816406 10.177399635314941 
v -2.4763455390930176 133.18685913085938 10.293083190917969 
v -2.364609956741333 132.96600341796875 10.177399635314941 
v -2.361816644668579 133.1706085205078 10.293866157531738 
v -2.174659490585327 133.00367736816406 10.177399635314941 
v -2.2500810623168945 133.1927032470703 10.293866157531738 
v -2.0154361724853516 133.11085510253906 10.177399635314941 
v -2.1551058292388916 133.25570678710938 10.293866157531738 
v -1.9064940214157104 133.27130126953125 10.177399635314941 
v -2.093651056289673 133.3498992919922 10.293866157531738 
v -1.8701798915863037 133.46096801757812 10.177399635314941 
v -2.0713040828704834 133.46096801757812 10.293866157531738 
v -2.093651056289673 133.57205200195312 10.293866157531738 
v -1.9064940214157104 133.65065002441406 10.177399635314941 
v -2.1551058292388916 133.66622924804688 10.293866157531738 
v -2.0154361724853516 133.8110809326172 10.177399635314941 
vn -0.2006208896636963 0.37258902192115784 0.9060511589050293 
vn -0.17545221745967865 0.2988862097263336 0.9380210638046265 
vn -0.022528989240527153 0.329362154006958 0.9439348578453064 
vn -0.012942096218466759 -0.09948867559432983 0.994954526424408 
vn 0.14381469786167145 0.3017323613166809 0.9424833655357361 
vn 0.2852276563644409 0.2109532654285431 0.9349566102027893 
vn 0.17311610281467438 0.37742599844932556 0.9097144603729248 
vn 0.33959949016571045 0.27185341715812683 0.9004265069961548 
vn 0.3758251368999481 0.07475626468658447 0.9236704111099243 
vn 0.45434147119522095 0.1045280396938324 0.8846737742424011 
vn 0.40951573848724365 -0.08960980176925659 0.9078915119171143 
vn 0.4899689555168152 -0.08236343413591385 0.8678402304649353 
vn 0.38017433881759644 -0.2492094188928604 0.8907088041305542 
vn 0.45145559310913086 -0.278748482465744 0.8476362228393555 
vn 0.2849014699459076 -0.3882913887500763 0.8763908743858337 
vn -0.016945602372288704 0.41090622544288635 0.9115201234817505 
vn 0.34739232063293457 -0.439068078994751 0.8285757899284363 
vn 0.17602641880512238 -0.5466289520263672 0.8186644315719604 
vn 0.14465011656284332 -0.4792778789997101 0.865661084651947 
vn -0.013180054724216461 -0.5812548995018005 0.8136147856712341 
vn -0.015058950521051884 -0.5079529881477356 0.8612531423568726 
vn -0.2027374804019928 -0.5411108136177063 0.8161473870277405 
vn -0.17694777250289917 -0.4763742983341217 0.8612531423568726 
vn -0.36564329266548157 -0.43347790837287903 0.8236515522003174 
vn -0.3143756687641144 -0.3847353160381317 0.8678402304649353 
vn -0.476046621799469 -0.2733962833881378 0.8358433246612549 
vn -0.4050361216068268 -0.253390371799469 0.8784868121147156 
vn -0.5122061967849731 -0.08627646416425705 0.8545181155204773 
vn -0.43841665983200073 -0.08600754290819168 0.8946471214294434 
vn -0.4050438702106476 0.0712076723575592 0.9115201234817505 
vn -0.4731946587562561 0.10827946662902832 0.87427818775177 
vn -0.31616076827049255 0.2092747539281845 0.9253358840942383 
vn -0.36282750964164734 0.26733317971229553 0.8926864862442017 
vn 0.18666782975196838 0.3709106147289276 0.9097144603729248 
vn 0.16373364627361298 0.29611507058143616 0.9410139322280884 
vn 0.007514854893088341 0.33004623651504517 0.9439348578453064 
vn 0.0018539319280534983 -0.10030980408191681 0.994954526424408 
vn -0.15581609308719635 0.3049776554107666 0.9395264387130737 
vn -0.29710566997528076 0.20841842889785767 0.931820809841156 
vn -0.18526911735534668 0.37604308128356934 0.9078915119171143 
vn -0.35606545209884644 0.2698589563369751 0.8946471214294434 
vn -0.3881194293498993 0.07480388879776001 0.9185682535171509 
vn -0.4653658866882324 0.10814597457647324 0.8784868121147156 
vn -0.4216498136520386 -0.08962443470954895 0.9023185968399048 
vn -0.504622220993042 -0.08621632307767868 0.8590245246887207 
vn -0.3893151581287384 -0.24938438832759857 0.8867024183273315 
vn -0.4639767110347748 -0.2794685363769531 0.8406086564064026 
vn -0.30081063508987427 -0.3858358860015869 0.872148871421814 
vn 0.005649955943226814 0.411216676235199 0.9115201234817505 
vn -0.35399922728538513 -0.4430379867553711 0.8236515522003174 
vn -0.18856270611286163 -0.5462119579315186 0.8161473870277405 
vn -0.15372127294540405 -0.4804137349128723 0.8634653687477112 
vn 0.001883022952824831 -0.5814012289047241 0.8136147856712341 
vn 0.007530301809310913 -0.5081203579902649 0.8612531423568726 
vn 0.19030478596687317 -0.5418234467506409 0.8186644315719604 
vn 0.1644367128610611 -0.4768523573875427 0.8634653687477112 
vn 0.3532680571079254 -0.4343545436859131 0.8285757899284363 
vn 0.30081063508987427 -0.3858358860015869 0.872148871421814 
vn 0.4636799991130829 -0.2727764844894409 0.8429672718048096 
vn 0.39367493987083435 -0.24974451959133148 0.8846737742424011 
vn 0.50143963098526 -0.08246999233961105 0.8612531423568726 
vn 0.42565810680389404 -0.08970664441585541 0.9004265069961548 
vn 0.3921858072280884 0.07489013671875 0.916832447052002 
vn 0.4622204303741455 0.10467031598091125 0.8805659413337708 
vn 0.29995831847190857 0.21143390238285065 0.9302261471748352 
vn 0.3538094758987427 0.26635298132896423 0.8965907096862793 
s on 
f 1//1 2//2 3//3 
f 2//2 4//4 3//3 
f 3//3 4//4 5//5 
f 4//4 6//6 5//5 
f 5//5 6//6 7//7 
f 6//6 6//6 7//7 
f 7//7 6//6 8//8 
f 6//6 9//9 8//8 
f 8//8 9//9 10//10 
f 9//9 11//11 10//10 
f 10//10 11//11 12//12 
f 11//11 13//13 12//12 
f 12//12 13//13 14//14 
f 13//13 13//13 14//14 
f 14//14 13//13 15//15 
f 13//13 13//13 15//15 
f 15//15 13//13 4//4 
f 13//13 11//11 4//4 
f 4//4 11//11 4//4 
f 11//11 9//9 4//4 
f 4//4 9//9 6//6 
f 9//9 6//6 6//6 
f 6//6 6//6 7//7 
f 6//6 7//7 7//7 
f 7//7 7//7 5//5 
f 7//7 16//16 5//5 
f 5//5 16//16 3//3 
f 16//16 1//1 3//3 
f 3//3 1//1 1//1 
f 1//1 14//14 1//1 
f 1//1 14//14 14//14 
f 14//14 15//15 14//14 
f 14//14 15//15 17//17 
f 15//15 15//15 17//17 
f 17//17 15//15 18//18 
f 15//15 19//19 18//18 
f 18//18 19//19 20//20 
f 19//19 21//21 20//20 
f 20//20 21//21 22//22 
f 21//21 23//23 22//22 
f 22//22 23//23 24//24 
f 23//23 25//25 24//24 
f 24//24 25//25 26//26 
f 25//25 27//27 26//26 
f 26//26 27//27 28//28 
f 27//27 29//29 28//28 
f 28//28 29//29 30//30 
f 29//29 29//29 30//30 
f 30//30 29//29 4//4 
f 29//29 27//27 4//4 
f 4//4 27//27 4//4 
f 27//27 25//25 4//4 
f 4//4 25//25 4//4 
f 25//25 23//23 4//4 
f 4//4 23//23 4//4 
f 23//23 21//21 4//4 
f 4//4 21//21 4//4 
f 21//21 19//19 4//4 
f 4//4 19//19 15//15 
f 19//19 15//15 15//15 
f 15//15 15//15 28//28 
f 15//15 28//28 28//28 
f 28//28 28//28 31//31 
f 28//28 30//30 31//31 
f 31//31 30//30 32//32 
f 30//30 4//4 32//32 
f 32//32 4//4 32//32 
f 4//4 2//2 32//32 
f 32//32 2//2 33//33 
f 2//2 1//1 33//33 
f 33//33 1//1 1//1 
f 1//1 31//31 1//1 
f 1//1 31//31 31//31 
f 31//31 32//32 31//31 
f 31//31 32//32 33//33 
f 32//32 33//33 33//33 
f 33//33 33//33 34//34 
f 33//33 34//34 34//34 
f 34//34 34//34 35//35 
f 34//34 36//36 35//35 
f 35//35 36//36 37//37 
f 36//36 38//38 37//37 
f 37//37 38//38 39//39 
f 38//38 40//40 39//39 
f 39//39 40//40 39//39 
f 40//40 41//41 39//39 
f 39//39 41//41 42//42 
f 41//41 43//43 42//42 
f 42//42 43//43 44//44 
f 43//43 45//45 44//44 
f 44//44 45//45 46//46 
f 45//45 47//47 46//46 
f 46//46 47//47 46//46 
f 47//47 48//48 46//46 
f 46//46 48//48 46//46 
f 48//48 37//37 46//46 
f 46//46 37//37 44//44 
f 37//37 37//37 44//44 
f 44//44 37//37 42//42 
f 37//37 39//39 42//42 
f 42//42 39//39 39//39 
f 39//39 40//40 39//39 
f 39//39 40//40 40//40 
f 40//40 38//38 40//40 
f 40//40 38//38 49//49 
f 38//38 36//36 49//49 
f 49//49 36//36 34//34 
f 36//36 34//34 34//34 
f 34//34 34//34 47//47 
f 34//34 47//47 47//47 
f 47//47 47//47 48//48 
f 47//47 50//50 48//48 
f 48//48 50//50 48//48 
f 50//50 51//51 48//48 
f 48//48 51//51 52//52 
f 51//51 53//53 52//52 
f 52//52 53//53 54//54 
f 53//53 55//55 54//54 
f 54//54 55//55 56//56 
f 55//55 57//57 56//56 
f 56//56 57//57 58//58 
f 57//57 59//59 58//58 
f 58//58 59//59 60//60 
f 59//59 61//61 60//60 
f 60//60 61//61 62//62 
f 61//61 63//63 62//62 
f 62//62 63//63 62//62 
f 63//63 37//37 62//62 
f 62//62 37//37 60//60 
f 37//37 37//37 60//60 
f 60//60 37//37 58//58 
f 37//37 37//37 58//58 
f 58//58 37//37 56//56 
f 37//37 37//37 56//56 
f 56//56 37//37 54//54 
f 37//37 37//37 54//54 
f 54//54 37//37 52//52 
f 37//37 48//48 52//52 
f 52//52 48//48 48//48 
f 48//48 61//61 48//48 
f 48//48 61//61 61//61 
f 61//61 64//64 61//61 
f 61//61 64//64 63//63 
f 64//64 65//65 63//63 
f 63//63 65//65 37//37 
f 65//65 65//65 37//37 
f 37//37 65//65 35//35 
f 65//65 66//66 35//35 
f 35//35 66//66 34//34 
f 66//66 34//34 34//34 
f 34//34 34//34 65//65 
f 34//34 65//65 65//65 
f 65//65 65//65 66//66 
f 65//65 64//64 66//66 

