mtllib model_1.mtl
o model_1
v -3.8323216438293457 142.96377563476562 13.149299621582031 
v -3.7006847858428955 142.6553192138672 13.344511032104492 
v -3.509598970413208 143.0274200439453 13.149299621582031 
v -3.505352735519409 142.68142700195312 13.345831871032715 
v -3.1911227703094482 142.96377563476562 13.149299621582031 
v -3.3185133934020996 142.6446990966797 13.345831871032715 
v -3.505352735519409 142.192626953125 13.449748039245605 
v -3.8662924766540527 142.54678344726562 13.344511032104492 
v -4.099841594696045 142.78260803222656 13.149299621582031 
v -4.282434940338135 142.51168823242188 13.149299621582031 
v -3.9724512100219727 142.38438415527344 13.344511032104492 
v -4.346129894256592 142.192626953125 13.149299621582031 
v -4.0106682777404785 142.192626953125 13.344511032104492 
v -4.282434940338135 141.87274169921875 13.149299621582031 
v -3.9724512100219727 142.0008544921875 13.344511032104492 
v -4.099841594696045 141.601806640625 13.149299621582031 
v -3.8662924766540527 141.837646484375 13.344511032104492 
v -3.8323216438293457 141.420654296875 13.149299621582031 
v -3.7006847858428955 141.72911071777344 13.344511032104492 
v -3.509598970413208 141.35699462890625 13.149299621582031 
v -3.505352735519409 141.7030029296875 13.345831871032715 
v -3.1911227703094482 141.420654296875 13.149299621582031 
v -3.3185133934020996 141.73971557617188 13.345831871032715 
v -2.919356346130371 141.601806640625 13.149299621582031 
v -3.157151937484741 141.84580993652344 13.345831871032715 
v -2.7410097122192383 141.87274169921875 13.149299621582031 
v -3.0509932041168213 142.0049285888672 13.345831871032715 
v -2.677314519882202 142.192626953125 13.149299621582031 
v -3.0170223712921143 142.192626953125 13.345831871032715 
v -3.0509932041168213 142.37948608398438 13.345831871032715 
v -3.157151937484741 142.5386199951172 13.345831871032715 
v -2.7410097122192383 142.51168823242188 13.149299621582031 
v -2.919356346130371 142.78260803222656 13.149299621582031 
v 3.191141366958618 142.96377563476562 13.149299621582031 
v 3.50537109375 142.68142700195312 13.345831871032715 
v 3.3185317516326904 142.6446990966797 13.345831871032715 
v 3.50537109375 142.192626953125 13.449748039245605 
v 3.157170534133911 142.5386199951172 13.345831871032715 
v 3.051011800765991 142.37948608398438 13.345831871032715 
v 2.741028070449829 142.51168823242188 13.149299621582031 
v 2.677332878112793 142.192626953125 13.149299621582031 
v 3.017040967941284 142.192626953125 13.345831871032715 
v 3.051011800765991 142.0049285888672 13.345831871032715 
v 3.157170534133911 141.84580993652344 13.345831871032715 
v 2.741028070449829 141.87274169921875 13.149299621582031 
v 2.919374942779541 141.601806640625 13.149299621582031 
v 3.3185317516326904 141.73971557617188 13.345831871032715 
v 3.191141366958618 141.420654296875 13.149299621582031 
v 3.50537109375 141.7030029296875 13.345831871032715 
v 2.919374942779541 142.78260803222656 13.149299621582031 
v 3.509617567062378 141.35699462890625 13.149299621582031 
v 3.7007031440734863 141.72911071777344 13.344511032104492 
v 3.8323400020599365 141.420654296875 13.149299621582031 
v 3.8663108348846436 141.837646484375 13.344511032104492 
v 4.099860191345215 141.601806640625 13.149299621582031 
v 3.9724695682525635 142.0008544921875 13.344511032104492 
v 4.2824530601501465 141.87274169921875 13.149299621582031 
v 4.010686874389648 142.192626953125 13.344511032104492 
v 4.346148490905762 142.192626953125 13.149299621582031 
v 3.9724695682525635 142.38438415527344 13.344511032104492 
v 4.2824530601501465 142.51168823242188 13.149299621582031 
v 3.8663108348846436 142.54678344726562 13.344511032104492 
v 4.099860191345215 142.78260803222656 13.149299621582031 
v 3.7007031440734863 142.6553192138672 13.344511032104492 
v 3.8323400020599365 142.96377563476562 13.149299621582031 
v 3.509617567062378 143.0274200439453 13.149299621582031 
vn -0.19606730341911316 0.4647420644760132 0.8634653687477112 
vn -0.1378740817308426 0.3488438129425049 0.926983654499054 
vn 0.005641611758619547 0.4968113303184509 0.8678402304649353 
vn 0.013167076744139194 0.3626798093318939 0.931820809841156 
vn 0.19576583802700043 0.4566498100757599 0.8678402304649353 
vn 0.1443336457014084 0.3374123275279999 0.9302261471748352 
vn 0 0 1 
vn -0.26410409808158875 0.2548103332519531 0.9302261471748352 
vn -0.3626083731651306 0.3506319522857666 0.8634653687477112 
vn -0.46831873059272766 0.18736368417739868 0.8634653687477112 
vn -0.3365393579006195 0.1358354538679123 0.931820809841156 
vn -0.5043941140174866 -0.003763967426493764 0.8634653687477112 
vn -0.3628992438316345 -0.0037627804558724165 0.931820809841156 
vn -0.4625183641910553 -0.20125693082809448 0.8634653687477112 
vn -0.3336504399776459 -0.14278443157672882 0.931820809841156 
vn -0.351982444524765 -0.361297607421875 0.8634653687477112 
vn -0.2534556984901428 -0.2654044032096863 0.9302261471748352 
vn -0.1891097128391266 -0.46761640906333923 0.8634653687477112 
vn -0.126888245344162 -0.34435251355171204 0.9302261471748352 
vn 0.005641611758619547 -0.4968113303184509 0.8678402304649353 
vn 0.013167076744139194 -0.3626798093318939 0.931820809841156 
vn 0.19576583802700043 -0.4566498100757599 0.8678402304649353 
vn 0.1443336457014084 -0.3374123275279999 0.9302261471748352 
vn 0.35594454407691956 -0.34663641452789307 0.8678402304649353 
vn 0.2666977643966675 -0.25209441781044006 0.9302261471748352 
vn 0.4656957685947418 -0.18373452126979828 0.865661084651947 
vn 0.3423643112182617 -0.13215883076190948 0.9302261471748352 
vn 0.5006305575370789 0 0.865661084651947 
vn 0.3588438034057617 0 0.933397650718689 
vn 0.3423643112182617 0.13215883076190948 0.9302261471748352 
vn 0.2666977643966675 0.25209441781044006 0.9302261471748352 
vn 0.4656957685947418 0.18373452126979828 0.865661084651947 
vn 0.35594454407691956 0.34663641452789307 0.8678402304649353 
vn -0.1923033744096756 0.4581186771392822 0.8678402304649353 
vn -0.01692667230963707 0.36252379417419434 0.931820809841156 
vn -0.14777883887290955 0.33591771125793457 0.9302261471748352 
vn 0 0 1 
vn -0.26410409808158875 0.2548103332519531 0.9302261471748352 
vn -0.3409940004348755 0.13565532863140106 0.9302261471748352 
vn -0.4656957685947418 0.18373452126979828 0.865661084651947 
vn -0.5006305575370789 -1.0354196476993274e-13 0.865661084651947 
vn -0.3588438034057617 -7.421718946874767e-14 0.933397650718689 
vn -0.3409940004348755 -0.13565532863140106 0.9302261471748352 
vn -0.26410409808158875 -0.2548103332519531 0.9302261471748352 
vn -0.4656957685947418 -0.18373452126979828 0.865661084651947 
vn -0.3533102869987488 -0.34932100772857666 0.8678402304649353 
vn -0.14777883887290955 -0.33591771125793457 0.9302261471748352 
vn -0.1923033744096756 -0.4581186771392822 0.8678402304649353 
vn -0.01692667230963707 -0.36252379417419434 0.931820809841156 
vn -0.3533102869987488 0.34932100772857666 0.8678402304649353 
vn -0.009402327239513397 -0.49675437808036804 0.8678402304649353 
vn 0.13040536642074585 -0.343036025762558 0.9302261471748352 
vn 0.18561503291130066 -0.46901455521583557 0.8634653687477112 
vn 0.25615832209587097 -0.26279687881469727 0.9302261471748352 
vn 0.35466867685317993 -0.3586609959602356 0.8634653687477112 
vn 0.3321521282196045 -0.14623607695102692 0.931820809841156 
vn 0.46400728821754456 -0.1977999359369278 0.8634653687477112 
vn 0.3628407120704651 -0.007525156252086163 0.931820809841156 
vn 0.5043519735336304 -0.007527725305408239 0.8634653687477112 
vn 0.3379296362400055 0.13233888149261475 0.931820809841156 
vn 0.4697038233280182 0.1838638037443161 0.8634653687477112 
vn 0.2666977643966675 0.25209441781044006 0.9302261471748352 
vn 0.35998180508613586 0.35332801938056946 0.8634653687477112 
vn 0.14136843383312225 0.3474424183368683 0.926983654499054 
vn 0.19259387254714966 0.46619221568107605 0.8634653687477112 
vn -0.009402327239513397 0.49675437808036804 0.8678402304649353 
s on 
f 1//1 2//2 3//3 
f 2//2 4//4 3//3 
f 3//3 4//4 5//5 
f 4//4 4//4 5//5 
f 5//5 4//4 6//6 
f 4//4 4//4 6//6 
f 6//6 4//4 7//7 
f 4//4 2//2 7//7 
f 7//7 2//2 8//8 
f 2//2 9//9 8//8 
f 8//8 9//9 8//8 
f 9//9 10//10 8//8 
f 8//8 10//10 11//11 
f 10//10 12//12 11//11 
f 11//11 12//12 13//13 
f 12//12 14//14 13//13 
f 13//13 14//14 15//15 
f 14//14 16//16 15//15 
f 15//15 16//16 17//17 
f 16//16 18//18 17//17 
f 17//17 18//18 19//19 
f 18//18 20//20 19//19 
f 19//19 20//20 19//19 
f 20//20 21//21 19//19 
f 19//19 21//21 19//19 
f 21//21 7//7 19//19 
f 19//19 7//7 17//17 
f 7//7 7//7 17//17 
f 17//17 7//7 15//15 
f 7//7 7//7 15//15 
f 15//15 7//7 13//13 
f 7//7 7//7 13//13 
f 13//13 7//7 11//11 
f 7//7 8//8 11//11 
f 11//11 8//8 8//8 
f 8//8 9//9 8//8 
f 8//8 9//9 9//9 
f 9//9 2//2 9//9 
f 9//9 2//2 1//1 
f 2//2 1//1 1//1 
f 1//1 1//1 20//20 
f 1//1 20//20 20//20 
f 20//20 20//20 21//21 
f 20//20 22//22 21//21 
f 21//21 22//22 23//23 
f 22//22 24//24 23//23 
f 23//23 24//24 25//25 
f 24//24 26//26 25//25 
f 25//25 26//26 27//27 
f 26//26 28//28 27//27 
f 27//27 28//28 29//29 
f 28//28 30//30 29//29 
f 29//29 30//30 7//7 
f 30//30 30//30 7//7 
f 7//7 30//30 31//31 
f 30//30 32//32 31//31 
f 31//31 32//32 31//31 
f 32//32 33//33 31//31 
f 31//31 33//33 6//6 
f 33//33 5//5 6//6 
f 6//6 5//5 5//5 
f 5//5 21//21 5//5 
f 5//5 21//21 21//21 
f 21//21 23//23 21//21 
f 21//21 23//23 7//7 
f 23//23 25//25 7//7 
f 7//7 25//25 7//7 
f 25//25 27//27 7//7 
f 7//7 27//27 29//29 
f 27//27 29//29 29//29 
f 29//29 29//29 32//32 
f 29//29 32//32 32//32 
f 32//32 32//32 28//28 
f 32//32 30//30 28//28 
f 28//28 30//30 30//30 
f 30//30 31//31 30//30 
f 30//30 31//31 31//31 
f 31//31 6//6 31//31 
f 31//31 6//6 7//7 
f 6//6 7//7 7//7 
f 7//7 7//7 34//34 
f 7//7 34//34 34//34 
f 34//34 34//34 35//35 
f 34//34 36//36 35//35 
f 35//35 36//36 37//37 
f 36//36 38//38 37//37 
f 37//37 38//38 39//39 
f 38//38 40//40 39//39 
f 39//39 40//40 39//39 
f 40//40 41//41 39//39 
f 39//39 41//41 42//42 
f 41//41 43//43 42//42 
f 42//42 43//43 37//37 
f 43//43 43//43 37//37 
f 37//37 43//43 44//44 
f 43//43 45//45 44//44 
f 44//44 45//45 44//44 
f 45//45 46//46 44//44 
f 44//44 46//46 47//47 
f 46//46 48//48 47//47 
f 47//47 48//48 47//47 
f 48//48 49//49 47//47 
f 47//47 49//49 47//47 
f 49//49 37//37 47//47 
f 47//47 37//37 44//44 
f 37//37 44//44 44//44 
f 44//44 44//44 40//40 
f 44//44 40//40 40//40 
f 40//40 40//40 50//50 
f 40//40 38//38 50//50 
f 50//50 38//38 50//50 
f 38//38 36//36 50//50 
f 50//50 36//36 34//34 
f 36//36 34//34 34//34 
f 34//34 34//34 42//42 
f 34//34 42//42 42//42 
f 42//42 42//42 39//39 
f 42//42 37//37 39//39 
f 39//39 37//37 37//37 
f 37//37 41//41 37//37 
f 37//37 41//41 41//41 
f 41//41 45//45 41//41 
f 41//41 45//45 43//43 
f 45//45 43//43 43//43 
f 43//43 43//43 48//48 
f 43//43 48//48 48//48 
f 48//48 48//48 49//49 
f 48//48 51//51 49//49 
f 49//49 51//51 52//52 
f 51//51 53//53 52//52 
f 52//52 53//53 54//54 
f 53//53 55//55 54//54 
f 54//54 55//55 56//56 
f 55//55 57//57 56//56 
f 56//56 57//57 58//58 
f 57//57 59//59 58//58 
f 58//58 59//59 60//60 
f 59//59 61//61 60//60 
f 60//60 61//61 62//62 
f 61//61 63//63 62//62 
f 62//62 63//63 63//63 
f 63//63 49//49 63//63 
f 63//63 49//49 49//49 
f 49//49 52//52 49//49 
f 49//49 52//52 37//37 
f 52//52 54//54 37//37 
f 37//37 54//54 37//37 
f 54//54 56//56 37//37 
f 37//37 56//56 37//37 
f 56//56 58//58 37//37 
f 37//37 58//58 37//37 
f 58//58 60//60 37//37 
f 37//37 60//60 37//37 
f 60//60 62//62 37//37 
f 37//37 62//62 64//64 
f 62//62 63//63 64//64 
f 64//64 63//63 64//64 
f 63//63 65//65 64//64 
f 64//64 65//65 64//64 
f 65//65 66//66 64//64 
f 64//64 66//66 35//35 
f 66//66 34//34 35//35 
f 35//35 34//34 34//34 
f 34//34 35//35 34//34 
f 34//34 35//35 35//35 
f 35//35 37//37 35//35 
f 35//35 37//37 64//64 

